<svg xmlns="http://www.w3.org/2000/svg" width="1000" height="520" viewBox="0 0 1000 520">
<rect width="100%" height="100%" fill="#fffdf8"/>
<text x="500.0" y="34" text-anchor="middle" font-family="Segoe UI, sans-serif" font-size="22" font-weight="700">Yeouido subway boardings</text>
<rect x="773.7" y="65" width="191.3" height="385" fill="#f59e0b" opacity="0.10"/>
<line x1="85" y1="450.0" x2="965" y2="450.0" stroke="#d6d3d1"/>
<text x="75" y="454.0" text-anchor="end" font-family="Segoe UI" font-size="12">-1142.9</text>
<line x1="85" y1="373.0" x2="965" y2="373.0" stroke="#d6d3d1"/>
<text x="75" y="377.0" text-anchor="end" font-family="Segoe UI" font-size="12">2171.5</text>
<line x1="85" y1="296.0" x2="965" y2="296.0" stroke="#d6d3d1"/>
<text x="75" y="300.0" text-anchor="end" font-family="Segoe UI" font-size="12">5485.8</text>
<line x1="85" y1="219.0" x2="965" y2="219.0" stroke="#d6d3d1"/>
<text x="75" y="223.0" text-anchor="end" font-family="Segoe UI" font-size="12">8800.2</text>
<line x1="85" y1="142.0" x2="965" y2="142.0" stroke="#d6d3d1"/>
<text x="75" y="146.0" text-anchor="end" font-family="Segoe UI" font-size="12">12114.5</text>
<line x1="85" y1="65.0" x2="965" y2="65.0" stroke="#d6d3d1"/>
<text x="75" y="69.0" text-anchor="end" font-family="Segoe UI" font-size="12">15428.9</text>
<text x="85.0" y="475" text-anchor="middle" font-family="Segoe UI" font-size="12">0</text>
<text x="231.7" y="475" text-anchor="middle" font-family="Segoe UI" font-size="12">3.8</text>
<text x="378.3" y="475" text-anchor="middle" font-family="Segoe UI" font-size="12">7.7</text>
<text x="525.0" y="475" text-anchor="middle" font-family="Segoe UI" font-size="12">12</text>
<text x="671.7" y="475" text-anchor="middle" font-family="Segoe UI" font-size="12">15</text>
<text x="818.3" y="475" text-anchor="middle" font-family="Segoe UI" font-size="12">19</text>
<text x="965.0" y="475" text-anchor="middle" font-family="Segoe UI" font-size="12">23</text>
<polyline points="85.0,423.4 123.3,423.4 161.5,423.4 199.8,423.4 238.0,423.4 276.3,420.9 314.6,420.6 352.8,418.8 391.1,415.0 429.3,413.5 467.6,408.9 505.9,403.5 544.1,397.6 582.4,386.3 620.7,384.0 658.9,375.0 697.2,372.3 735.4,372.1 773.7,384.3 812.0,391.9 850.2,273.0 888.5,91.6 926.7,221.3 965.0,334.3" fill="none" stroke="#2563eb" stroke-width="3" stroke-linejoin="round"/>
<circle cx="85.0" cy="423.4" r="3.2" fill="#2563eb"/>
<circle cx="123.3" cy="423.4" r="3.2" fill="#2563eb"/>
<circle cx="161.5" cy="423.4" r="3.2" fill="#2563eb"/>
<circle cx="199.8" cy="423.4" r="3.2" fill="#2563eb"/>
<circle cx="238.0" cy="423.4" r="3.2" fill="#2563eb"/>
<circle cx="276.3" cy="420.9" r="3.2" fill="#2563eb"/>
<circle cx="314.6" cy="420.6" r="3.2" fill="#2563eb"/>
<circle cx="352.8" cy="418.8" r="3.2" fill="#2563eb"/>
<circle cx="391.1" cy="415.0" r="3.2" fill="#2563eb"/>
<circle cx="429.3" cy="413.5" r="3.2" fill="#2563eb"/>
<circle cx="467.6" cy="408.9" r="3.2" fill="#2563eb"/>
<circle cx="505.9" cy="403.5" r="3.2" fill="#2563eb"/>
<circle cx="544.1" cy="397.6" r="3.2" fill="#2563eb"/>
<circle cx="582.4" cy="386.3" r="3.2" fill="#2563eb"/>
<circle cx="620.7" cy="384.0" r="3.2" fill="#2563eb"/>
<circle cx="658.9" cy="375.0" r="3.2" fill="#2563eb"/>
<circle cx="697.2" cy="372.3" r="3.2" fill="#2563eb"/>
<circle cx="735.4" cy="372.1" r="3.2" fill="#2563eb"/>
<circle cx="773.7" cy="384.3" r="3.2" fill="#2563eb"/>
<circle cx="812.0" cy="391.9" r="3.2" fill="#2563eb"/>
<circle cx="850.2" cy="273.0" r="3.2" fill="#2563eb"/>
<circle cx="888.5" cy="91.6" r="3.2" fill="#2563eb"/>
<circle cx="926.7" cy="221.3" r="3.2" fill="#2563eb"/>
<circle cx="965.0" cy="334.3" r="3.2" fill="#2563eb"/>
<polyline points="85.0,423.4 123.3,423.4 161.5,423.4 199.8,423.4 238.0,423.4 276.3,421.3 314.6,420.2 352.8,419.3 391.1,414.8 429.3,412.1 467.6,410.7 505.9,405.0 544.1,401.4 582.4,395.8 620.7,391.3 658.9,383.0 697.2,360.2 735.4,363.8 773.7,361.1 812.0,362.7 850.2,350.8 888.5,372.2 926.7,391.4 965.0,411.4" fill="none" stroke="#dc2626" stroke-width="3" stroke-linejoin="round"/>
<circle cx="85.0" cy="423.4" r="3.2" fill="#dc2626"/>
<circle cx="123.3" cy="423.4" r="3.2" fill="#dc2626"/>
<circle cx="161.5" cy="423.4" r="3.2" fill="#dc2626"/>
<circle cx="199.8" cy="423.4" r="3.2" fill="#dc2626"/>
<circle cx="238.0" cy="423.4" r="3.2" fill="#dc2626"/>
<circle cx="276.3" cy="421.3" r="3.2" fill="#dc2626"/>
<circle cx="314.6" cy="420.2" r="3.2" fill="#dc2626"/>
<circle cx="352.8" cy="419.3" r="3.2" fill="#dc2626"/>
<circle cx="391.1" cy="414.8" r="3.2" fill="#dc2626"/>
<circle cx="429.3" cy="412.1" r="3.2" fill="#dc2626"/>
<circle cx="467.6" cy="410.7" r="3.2" fill="#dc2626"/>
<circle cx="505.9" cy="405.0" r="3.2" fill="#dc2626"/>
<circle cx="544.1" cy="401.4" r="3.2" fill="#dc2626"/>
<circle cx="582.4" cy="395.8" r="3.2" fill="#dc2626"/>
<circle cx="620.7" cy="391.3" r="3.2" fill="#dc2626"/>
<circle cx="658.9" cy="383.0" r="3.2" fill="#dc2626"/>
<circle cx="697.2" cy="360.2" r="3.2" fill="#dc2626"/>
<circle cx="735.4" cy="363.8" r="3.2" fill="#dc2626"/>
<circle cx="773.7" cy="361.1" r="3.2" fill="#dc2626"/>
<circle cx="812.0" cy="362.7" r="3.2" fill="#dc2626"/>
<circle cx="850.2" cy="350.8" r="3.2" fill="#dc2626"/>
<circle cx="888.5" cy="372.2" r="3.2" fill="#dc2626"/>
<circle cx="926.7" cy="391.4" r="3.2" fill="#dc2626"/>
<circle cx="965.0" cy="411.4" r="3.2" fill="#dc2626"/>
<line x1="85" y1="50" x2="109" y2="50" stroke="#2563eb" stroke-width="4"/>
<text x="116" y="54" font-family="Segoe UI" font-size="13">Event Saturday</text>
<line x1="305" y1="50" x2="329" y2="50" stroke="#dc2626" stroke-width="4"/>
<text x="336" y="54" font-family="Segoe UI" font-size="13">Normal Saturday average</text>
<text x="500.0" y="505" text-anchor="middle" font-family="Segoe UI" font-size="14">Hour</text>
<text x="20" y="260.0" text-anchor="middle" transform="rotate(-90 20 260.0)" font-family="Segoe UI" font-size="14">Boardings</text>
</svg>